<svg width="530" height="395" viewBox="0 0 530 395" fill="none" xmlns="http://www.w3.org/2000/svg">
<path d="M427.098 15.1506H0V268.383H427.098V15.1506Z" fill="#616161"/>
<path d="M414.697 33.8833H12.3838V252.623H414.697V33.8833Z" fill="#424242"/>
<path d="M152.315 56.5793H48.9395V229.927H152.315V56.5793Z" fill="#616161"/>
<path d="M256.306 56.5793H170.16V104.295H256.306V56.5793Z" fill="url(#paint0_linear)"/>
<path d="M377.836 153.818H274.464V229.361H377.836V153.818Z" fill="url(#paint1_linear)"/>
<path d="M256.306 117.583H170.16V168.923H256.306V117.583Z" fill="#616161"/>
<path d="M256.306 182.211H170.16V229.927H256.306V182.211Z" fill="#616161"/>
<path d="M378.141 56.5793H274.766V132.123H378.141V56.5793Z" fill="#616161"/>
<path d="M488.204 134.453C481.385 123.045 467.894 122.514 467.894 122.514C467.894 122.514 454.748 120.849 446.315 138.223C438.455 154.417 427.607 170.053 444.569 173.844L447.633 164.402L449.53 174.547C451.945 174.719 454.368 174.76 456.787 174.669C474.952 174.089 492.252 174.839 491.695 168.386C490.954 159.806 494.765 145.429 488.204 134.453Z" fill="#2F2E41"/>
<path d="M423.54 195.361L417.575 210.323L387.751 237.646C387.751 237.646 369.857 250.657 377.81 254.56C385.763 258.463 393.053 240.248 393.053 240.248L424.865 221.383L431.492 199.915L423.54 195.361Z" fill="#FFB8B8"/>
<path d="M433.48 361.249L439.445 376.211H448.061L440.771 358.647L433.48 361.249Z" fill="#FFB8B8"/>
<path d="M459.328 367.754L465.293 382.717H473.909L466.618 365.152L459.328 367.754Z" fill="#FFB8B8"/>
<path d="M458.665 370.356L469.932 367.754L455.352 309.856L460.193 265.307L460.322 265.294C460.322 265.294 468.607 233.743 461.979 225.286C455.352 216.829 422.214 220.081 422.214 220.081C422.214 220.081 409.622 232.442 410.285 260.415C410.948 288.388 410.285 312.458 414.924 323.517C419.563 334.576 432.818 363.851 432.818 363.851L443.422 362.55L432.156 314.41L430.354 272.562C431.788 289.332 434.673 321.131 436.132 323.517C438.12 326.77 458.665 370.356 458.665 370.356Z" fill="#2F2E41"/>
<path d="M492.466 209.022L497.105 225.286L517.65 261.716C517.65 261.716 535.544 277.329 528.254 279.281C520.964 281.232 509.697 264.969 509.697 264.969L486.501 233.092L480.536 209.673L492.466 209.022Z" fill="#FFB8B8"/>
<path d="M468.607 162.834C477.757 162.834 485.175 155.553 485.175 146.571C485.175 137.588 477.757 130.307 468.607 130.307C459.456 130.307 452.038 137.588 452.038 146.571C452.038 155.553 459.456 162.834 468.607 162.834Z" fill="#FFB8B8"/>
<path d="M459.991 155.027L456.014 167.388L449.387 181.7L473.908 171.942C473.908 171.942 472.583 161.533 473.908 158.931L459.991 155.027Z" fill="#FFB8B8"/>
<path d="M488.489 181.049L473.246 168.689L456.014 175.845L456.69 165.289L438.304 171.053L435.469 171.941L431.493 192.108C431.493 192.108 428.842 194.06 426.191 205.119C424.66 211.618 422.439 217.941 419.563 223.985C419.563 223.985 448.061 212.925 461.979 227.888C461.979 227.888 463.967 226.587 463.305 224.635C462.642 222.684 469.269 212.925 469.269 212.925C469.269 212.925 469.269 214.877 471.92 210.974C474.571 207.071 476.56 206.42 476.56 206.42L488.489 181.049Z" fill="url(#paint2_linear)"/>
<path d="M439.446 173.893L436.551 171.602C436.551 171.602 434.144 170.64 432.156 173.893C430.168 177.146 420.227 197.312 420.227 197.312L432.156 203.167L439.446 173.893Z" fill="url(#paint3_linear)"/>
<path d="M479.21 180.398L488.489 181.049C488.489 181.049 493.791 183.651 493.791 187.554C493.791 191.458 495.116 212.275 495.116 212.275L480.536 216.829L474.571 198.614L479.21 180.398Z" fill="url(#paint4_linear)"/>
<path d="M437.531 373.934L426.264 378.488C426.264 378.488 413.009 379.139 414.997 385.644C416.985 392.149 436.868 387.596 436.868 387.596C436.868 387.596 454.762 388.246 454.762 383.692C454.762 379.139 452.111 373.934 449.46 373.934H437.531Z" fill="#2F2E41"/>
<path d="M462.715 379.789L451.448 384.343C451.448 384.343 438.194 384.993 440.182 391.499C442.17 398.004 462.052 393.45 462.052 393.45C462.052 393.45 479.947 394.101 479.947 389.547C479.947 384.993 477.296 379.789 474.645 379.789H462.715Z" fill="#2F2E41"/>
<path d="M485.189 133.354L471.861 126.441L453.456 129.269L449.647 145.921L459.127 145.56L461.775 139.442V145.459L466.149 145.293L468.687 135.553L470.274 145.921L485.824 145.606L485.189 133.354Z" fill="#2F2E41"/>
<path d="M396.043 54.3503C382.786 43.3694 366.563 36.4076 349.348 34.3121C332.133 32.2167 314.668 35.0779 299.08 42.5475C283.491 50.0172 270.451 61.7733 261.545 76.3852C252.639 90.9972 248.252 107.835 248.917 124.85C249.583 141.865 255.272 158.323 265.293 172.221C275.314 186.12 289.235 196.86 305.361 203.135C321.487 209.409 339.123 210.948 356.124 207.563C373.124 204.178 388.756 196.016 401.117 184.07L510.88 274.981C511.707 275.667 512.664 276.186 513.696 276.508C514.728 276.831 515.815 276.951 516.894 276.861C517.973 276.772 519.023 276.474 519.985 275.986C520.947 275.498 521.802 274.828 522.5 274.016C523.199 273.203 523.727 272.264 524.056 271.251C524.384 270.238 524.506 269.171 524.415 268.112C524.323 267.053 524.02 266.022 523.523 265.078C523.025 264.133 522.343 263.295 521.515 262.609L411.752 171.698C424.503 153.734 429.961 131.744 427.055 110.037C424.149 88.33 413.089 68.4704 396.043 54.3503ZM388.967 162.943C380.416 172.891 369.052 180.126 356.312 183.734C343.572 187.341 330.028 187.16 317.394 183.212C304.759 179.264 293.6 171.727 285.329 161.554C277.058 151.381 272.046 139.029 270.927 126.06C269.807 113.091 272.631 100.088 279.041 88.694C285.45 77.3003 295.158 68.0282 306.936 62.0501C318.714 56.072 332.034 53.6564 345.211 55.109C358.388 56.5615 370.83 61.8168 380.964 70.2103C394.553 81.4657 403.031 97.5589 404.532 114.95C406.033 132.341 400.434 149.604 388.967 162.943Z" fill="white"/>
<path opacity="0.3" d="M294.494 170.8C281.633 160.146 273.324 145.135 271.216 128.746C269.109 112.357 273.357 95.7899 283.118 82.3335C281.836 83.6006 280.597 84.9277 279.4 86.3147C273.722 92.9194 269.424 100.557 266.753 108.792C264.082 117.027 263.09 125.698 263.833 134.31C264.576 142.921 267.039 151.305 271.083 158.982C275.127 166.658 280.672 173.478 287.401 179.052C294.13 184.625 301.911 188.843 310.301 191.464C318.691 194.085 327.524 195.059 336.297 194.329C345.07 193.599 353.611 191.18 361.432 187.21C369.252 183.24 376.2 177.797 381.877 171.192C383.071 169.803 384.195 168.381 385.25 166.925C373.378 178.633 357.455 185.531 340.643 186.249C323.83 186.967 307.357 181.452 294.494 170.8Z" fill="black"/>
<defs>
<linearGradient id="paint0_linear" x1="149.245" y1="40.3214" x2="265.422" y2="119.323" gradientUnits="userSpaceOnUse">
<stop stop-color="#FF7A00" stop-opacity="0.7"/>
<stop offset="0.536458" stop-color="#FF00FF" stop-opacity="0.7"/>
<stop offset="1" stop-color="#9800F9" stop-opacity="0.7"/>
</linearGradient>
<linearGradient id="paint1_linear" x1="249.366" y1="128.079" x2="410.448" y2="211.102" gradientUnits="userSpaceOnUse">
<stop stop-color="#FF7A00" stop-opacity="0.7"/>
<stop offset="0.541667" stop-color="#FF00FF" stop-opacity="0.7"/>
<stop offset="1" stop-color="#9800F9" stop-opacity="0.7"/>
</linearGradient>
<linearGradient id="paint2_linear" x1="454.026" y1="165.289" x2="454.026" y2="227.888" gradientUnits="userSpaceOnUse">
<stop stop-color="#FF7A00"/>
<stop offset="0.4375" stop-color="#FF00FF" stop-opacity="0.8"/>
<stop offset="1" stop-color="#9800F9" stop-opacity="0.572917"/>
</linearGradient>
<linearGradient id="paint3_linear" x1="429.836" y1="171.469" x2="429.836" y2="203.167" gradientUnits="userSpaceOnUse">
<stop stop-color="#FF7A00"/>
<stop offset="0.4375" stop-color="#FF00FF" stop-opacity="0.8"/>
<stop offset="1" stop-color="#9800F9" stop-opacity="0.572917"/>
</linearGradient>
<linearGradient id="paint4_linear" x1="484.844" y1="180.398" x2="484.844" y2="216.829" gradientUnits="userSpaceOnUse">
<stop stop-color="#FF7A00"/>
<stop offset="0.4375" stop-color="#FF00FF" stop-opacity="0.8"/>
<stop offset="1" stop-color="#9800F9" stop-opacity="0.572917"/>
</linearGradient>
</defs>
</svg>
