<svg width="220" height="63" viewBox="0 0 220 63" fill="none" xmlns="http://www.w3.org/2000/svg">
<path d="M1.5 43.445L1.45 43.695C1.08333 44.8617 0.9 45.7617 0.9 46.395C0.9 47.8617 1.4 49.0117 2.4 49.845C3.43333 50.6783 4.58333 51.095 5.85 51.095C6.65 51.095 7.31667 50.9617 7.85 50.695C8.41667 50.4283 8.86667 50.0783 9.2 49.645C9.56667 49.2117 9.83333 48.7617 10 48.295C10.2 47.8283 10.4 47.2783 10.6 46.645L11.35 44.045H22.75L23.3 45.995L23.35 46.095C23.6833 47.1617 24 48.0283 24.3 48.695C24.6333 49.3283 25.1333 49.8617 25.8 50.295C26.1667 50.5283 26.6 50.7117 27.1 50.845C27.6 51.0117 28.0333 51.095 28.4 51.095C29.6 51.095 30.7167 50.695 31.75 49.895C32.7833 49.0617 33.3 47.8783 33.3 46.345C33.3 45.6783 33.1 44.745 32.7 43.545L32.6 43.295L24.1 19.345C23.7333 18.3117 23.35 17.5117 22.95 16.945C22.55 16.3783 22.0667 15.9617 21.5 15.695C20.9667 15.4283 20.3167 15.2617 19.55 15.195C18.7833 15.095 17.7 15.045 16.3 15.045C14.4667 15.0783 13.1167 15.3783 12.25 15.945C11.4167 16.4783 10.7333 17.4783 10.2 18.945L1.5 43.445ZM20.55 36.495H13.5L17 24.395L20.55 36.495ZM36.3984 48.445C36.3984 49.7783 36.2984 50.6117 36.0984 50.945C35.9318 51.2783 35.4484 51.4617 34.6484 51.495C34.3818 51.5283 34.0984 51.5783 33.7984 51.645C33.4651 51.745 33.1318 51.9117 32.7984 52.145C32.4318 52.3783 32.1318 52.745 31.8984 53.245C31.6318 53.745 31.4984 54.3783 31.4984 55.145C31.4984 56.3783 31.8651 57.345 32.5984 58.045C33.4318 58.8117 34.7651 59.195 36.5984 59.195C37.2318 59.195 38.0318 59.1283 38.9984 58.995C39.9984 58.8617 40.9318 58.595 41.7984 58.195C43.5651 57.3283 44.6651 56.0617 45.0984 54.395C45.5651 52.7283 45.8318 50.195 45.8984 46.795V46.695V29.895C45.8984 28.795 45.7484 27.8783 45.4484 27.145C45.1818 26.4117 44.7984 25.845 44.2984 25.445C43.8318 25.0117 43.3151 24.7117 42.7484 24.545C42.2151 24.345 41.6651 24.245 41.0984 24.245C40.4984 24.245 39.8818 24.3617 39.2484 24.595C38.6484 24.795 38.0984 25.2117 37.5984 25.845C37.1318 26.445 36.8151 27.0283 36.6484 27.595C36.5151 28.1617 36.4318 28.845 36.3984 29.645V29.695V48.445ZM41.1484 22.445C42.4484 22.445 43.5484 21.995 44.4484 21.095C45.3818 20.1617 45.8484 19.0283 45.8484 17.695C45.8484 16.395 45.3818 15.295 44.4484 14.395C43.5484 13.4617 42.4484 12.995 41.1484 12.995C39.8484 12.995 38.7318 13.4617 37.7984 14.395C36.8651 15.295 36.3984 16.395 36.3984 17.695C36.3984 19.0283 36.8651 20.1617 37.7984 21.095C38.7318 21.995 39.8484 22.445 41.1484 22.445ZM50.0227 40.195C50.0227 42.3283 50.1727 44.0617 50.4727 45.395C50.806 46.7283 51.5393 47.9117 52.6727 48.945C53.4727 49.645 54.406 50.1783 55.4727 50.545C56.5393 50.9117 57.556 51.095 58.5227 51.095C60.2227 51.095 61.806 50.6617 63.2727 49.795C64.7727 48.895 65.7893 47.6283 66.3227 45.995C66.356 46.8283 66.4727 47.595 66.6727 48.295C66.906 48.9617 67.356 49.5783 68.0227 50.145C68.856 50.745 69.756 51.045 70.7227 51.045C71.5227 51.045 72.2727 50.845 72.9727 50.445C73.706 50.0117 74.2727 49.345 74.6727 48.445C74.9393 47.745 75.0727 46.9617 75.0727 46.095V29.845C75.0727 29.0783 74.9727 28.345 74.7727 27.645C74.606 26.945 74.206 26.2783 73.5727 25.645C73.206 25.2783 72.756 24.9617 72.2227 24.695C71.7227 24.395 71.0727 24.245 70.2727 24.245C69.406 24.245 68.6393 24.445 67.9727 24.845C67.306 25.245 66.7727 25.7783 66.3727 26.445C66.0727 26.9783 65.8727 27.545 65.7727 28.145C65.706 28.7117 65.6727 29.3783 65.6727 30.145V37.895C65.6727 39.395 65.606 40.495 65.4727 41.195C65.3727 41.895 65.0893 42.495 64.6227 42.995C64.056 43.6617 63.2893 43.995 62.3227 43.995C61.8227 43.995 61.3727 43.895 60.9727 43.695C60.606 43.4617 60.306 43.195 60.0727 42.895C59.806 42.5617 59.6227 42.2283 59.5227 41.895C59.456 41.5283 59.4227 41.1117 59.4227 40.645V30.395C59.4227 29.1283 59.3227 28.195 59.1227 27.595C58.956 26.995 58.706 26.4783 58.3727 26.045C57.806 25.2783 57.1893 24.795 56.5227 24.595C55.856 24.3617 55.256 24.245 54.7227 24.245C54.0227 24.245 53.2727 24.4283 52.4727 24.795C51.6727 25.1617 51.0393 25.895 50.5727 26.995C50.3393 27.5283 50.1893 28.0283 50.1227 28.495C50.056 28.9617 50.0227 29.5117 50.0227 30.145V40.195ZM96.173 27.545C95.3397 26.3783 94.323 25.545 93.123 25.045C91.9564 24.5117 90.673 24.245 89.273 24.245C87.3397 24.245 85.6564 24.6283 84.223 25.395C82.7897 26.1617 81.6064 27.195 80.673 28.495C79.773 29.795 79.0897 31.2783 78.623 32.945C78.1897 34.5783 77.973 36.2783 77.973 38.045C77.973 42.1117 79.0064 45.3283 81.073 47.695C83.1397 50.0283 85.7064 51.195 88.773 51.195C89.9064 51.195 90.9064 51.0617 91.773 50.795C92.673 50.5617 93.4064 50.2617 93.973 49.895C94.573 49.495 95.0397 49.1117 95.373 48.745C95.7397 48.345 96.0897 47.9283 96.423 47.495C96.523 48.6617 97.0064 49.545 97.873 50.145C98.7397 50.745 99.6564 51.045 100.623 51.045C101.456 51.045 102.223 50.845 102.923 50.445C103.656 50.045 104.223 49.445 104.623 48.645C104.89 48.0783 105.056 47.445 105.123 46.745C105.223 46.045 105.273 45.2117 105.273 44.245V20.495C105.273 19.595 105.173 18.7783 104.973 18.045C104.806 17.3117 104.373 16.6117 103.673 15.945C103.306 15.6117 102.856 15.3283 102.323 15.095C101.823 14.8617 101.256 14.745 100.623 14.745C99.723 14.745 98.923 14.9783 98.223 15.445C97.523 15.8783 96.9897 16.5283 96.623 17.395C96.323 18.095 96.173 19.0617 96.173 20.295V27.545ZM92.123 30.695C92.8897 30.695 93.5564 30.9117 94.123 31.345C94.723 31.745 95.173 32.2617 95.473 32.895C95.7397 33.4283 95.9397 34.1617 96.073 35.095C96.2397 36.0283 96.323 37.0117 96.323 38.045C96.323 39.9117 96.123 41.295 95.723 42.195C95.323 43.0617 94.873 43.695 94.373 44.095C93.973 44.4283 93.5564 44.6617 93.123 44.795C92.723 44.895 92.3397 44.945 91.973 44.945C91.0397 44.945 90.2397 44.6617 89.573 44.095C88.9397 43.5283 88.473 42.8117 88.173 41.945C88.0064 41.5783 87.8564 41.0783 87.723 40.445C87.623 39.8117 87.573 38.995 87.573 37.995C87.573 37.095 87.6564 36.195 87.823 35.295C87.9897 34.3617 88.273 33.545 88.673 32.845C89.173 32.0117 89.7397 31.445 90.373 31.145C91.0064 30.845 91.5897 30.695 92.123 30.695ZM133.199 33.595C133.199 31.4283 132.749 29.695 131.849 28.395C130.982 27.0617 129.882 26.095 128.549 25.495C127.215 24.8617 125.899 24.4617 124.599 24.295C123.299 24.1283 121.982 24.045 120.649 24.045C119.615 24.045 118.582 24.1117 117.549 24.245C116.515 24.3783 115.515 24.6117 114.549 24.945C112.682 25.5783 111.315 26.4617 110.449 27.595C109.615 28.695 109.199 29.7117 109.199 30.645C109.199 31.745 109.615 32.6283 110.449 33.295C111.315 33.9283 112.282 34.245 113.349 34.245C114.082 34.245 114.749 34.0783 115.349 33.745C115.949 33.3783 116.399 32.945 116.699 32.445C116.732 32.3783 116.832 32.2117 116.999 31.945C117.165 31.6783 117.265 31.5283 117.299 31.495C117.699 30.895 118.199 30.495 118.799 30.295C119.432 30.0617 120.215 29.945 121.149 29.945C122.149 29.945 122.899 30.145 123.399 30.545C123.932 30.945 124.199 31.445 124.199 32.045C124.199 32.6117 124.015 33.0117 123.649 33.245C123.315 33.4783 122.899 33.6617 122.399 33.795H122.349C120.549 34.1283 119.449 34.345 119.049 34.445C118.682 34.5117 118.149 34.6117 117.449 34.745C116.749 34.8783 116.199 34.995 115.799 35.095C114.799 35.3283 113.849 35.6117 112.949 35.945C112.049 36.2783 111.199 36.7617 110.399 37.395C109.599 37.995 108.949 38.795 108.449 39.795C107.982 40.7617 107.749 41.945 107.749 43.345C107.749 45.8783 108.499 47.8283 109.999 49.195C111.532 50.5283 113.632 51.195 116.299 51.195C117.532 51.195 118.615 51.0783 119.549 50.845C120.482 50.645 121.299 50.3617 121.999 49.995C122.899 49.5283 123.849 48.7617 124.849 47.695C124.849 47.7283 124.865 47.7617 124.899 47.795C125.032 48.195 125.165 48.5617 125.299 48.895C125.465 49.195 125.699 49.5283 125.999 49.895C126.332 50.2283 126.749 50.495 127.249 50.695C127.782 50.9283 128.399 51.045 129.099 51.045C129.999 51.045 130.732 50.895 131.299 50.595C131.865 50.295 132.282 49.9117 132.549 49.445C132.815 48.9783 132.982 48.5283 133.049 48.095C133.149 47.6283 133.199 47.1617 133.199 46.695V33.595ZM124.449 42.445C123.649 43.1117 122.865 43.645 122.099 44.045C121.365 44.4117 120.482 44.595 119.449 44.595C118.849 44.595 118.349 44.5117 117.949 44.345C117.582 44.1783 117.315 43.9783 117.149 43.745C116.982 43.4783 116.865 43.245 116.799 43.045C116.765 42.8117 116.749 42.6283 116.749 42.495C116.749 41.795 117.015 41.2783 117.549 40.945C118.115 40.6117 118.782 40.345 119.549 40.145C120.615 39.845 121.382 39.6283 121.849 39.495C122.349 39.3283 123.215 39.0283 124.449 38.595V42.445ZM141.125 51.095C142.425 51.095 143.525 50.6283 144.425 49.695C145.358 48.7617 145.825 47.6617 145.825 46.395C145.825 45.0617 145.358 43.945 144.425 43.045C143.525 42.1117 142.425 41.645 141.125 41.645C139.792 41.645 138.658 42.1117 137.725 43.045C136.825 43.945 136.375 45.0617 136.375 46.395C136.375 47.6617 136.842 48.7617 137.775 49.695C138.708 50.6283 139.825 51.095 141.125 51.095ZM172.701 33.595C172.701 31.4283 172.251 29.695 171.351 28.395C170.484 27.0617 169.384 26.095 168.051 25.495C166.717 24.8617 165.401 24.4617 164.101 24.295C162.801 24.1283 161.484 24.045 160.151 24.045C159.117 24.045 158.084 24.1117 157.051 24.245C156.017 24.3783 155.017 24.6117 154.051 24.945C152.184 25.5783 150.817 26.4617 149.951 27.595C149.117 28.695 148.701 29.7117 148.701 30.645C148.701 31.745 149.117 32.6283 149.951 33.295C150.817 33.9283 151.784 34.245 152.851 34.245C153.584 34.245 154.251 34.0783 154.851 33.745C155.451 33.3783 155.901 32.945 156.201 32.445C156.234 32.3783 156.334 32.2117 156.501 31.945C156.667 31.6783 156.767 31.5283 156.801 31.495C157.201 30.895 157.701 30.495 158.301 30.295C158.934 30.0617 159.717 29.945 160.651 29.945C161.651 29.945 162.401 30.145 162.901 30.545C163.434 30.945 163.701 31.445 163.701 32.045C163.701 32.6117 163.517 33.0117 163.151 33.245C162.817 33.4783 162.401 33.6617 161.901 33.795H161.851C160.051 34.1283 158.951 34.345 158.551 34.445C158.184 34.5117 157.651 34.6117 156.951 34.745C156.251 34.8783 155.701 34.995 155.301 35.095C154.301 35.3283 153.351 35.6117 152.451 35.945C151.551 36.2783 150.701 36.7617 149.901 37.395C149.101 37.995 148.451 38.795 147.951 39.795C147.484 40.7617 147.251 41.945 147.251 43.345C147.251 45.8783 148.001 47.8283 149.501 49.195C151.034 50.5283 153.134 51.195 155.801 51.195C157.034 51.195 158.117 51.0783 159.051 50.845C159.984 50.645 160.801 50.3617 161.501 49.995C162.401 49.5283 163.351 48.7617 164.351 47.695C164.351 47.7283 164.367 47.7617 164.401 47.795C164.534 48.195 164.667 48.5617 164.801 48.895C164.967 49.195 165.201 49.5283 165.501 49.895C165.834 50.2283 166.251 50.495 166.751 50.695C167.284 50.9283 167.901 51.045 168.601 51.045C169.501 51.045 170.234 50.895 170.801 50.595C171.367 50.295 171.784 49.9117 172.051 49.445C172.317 48.9783 172.484 48.5283 172.551 48.095C172.651 47.6283 172.701 47.1617 172.701 46.695V33.595ZM163.951 42.445C163.151 43.1117 162.367 43.645 161.601 44.045C160.867 44.4117 159.984 44.595 158.951 44.595C158.351 44.595 157.851 44.5117 157.451 44.345C157.084 44.1783 156.817 43.9783 156.651 43.745C156.484 43.4783 156.367 43.245 156.301 43.045C156.267 42.8117 156.251 42.6283 156.251 42.495C156.251 41.795 156.517 41.2783 157.051 40.945C157.617 40.6117 158.284 40.345 159.051 40.145C160.117 39.845 160.884 39.6283 161.351 39.495C161.851 39.3283 162.717 39.0283 163.951 38.595V42.445ZM181.627 22.445C182.927 22.445 184.027 21.995 184.927 21.095C185.86 20.1617 186.327 19.0283 186.327 17.695C186.327 16.395 185.86 15.295 184.927 14.395C184.027 13.4617 182.927 12.995 181.627 12.995C180.327 12.995 179.21 13.4617 178.277 14.395C177.344 15.295 176.877 16.395 176.877 17.695C176.877 19.0283 177.344 20.1617 178.277 21.095C179.21 21.995 180.327 22.445 181.627 22.445ZM176.877 45.845V46.095C176.944 47.2617 177.144 48.145 177.477 48.745C177.844 49.4117 178.394 49.9617 179.127 50.395C179.86 50.8283 180.694 51.045 181.627 51.045C182.294 51.045 182.994 50.895 183.727 50.595C184.46 50.295 185.077 49.695 185.577 48.795C185.91 48.2617 186.11 47.745 186.177 47.245C186.277 46.7117 186.327 46.0783 186.327 45.345V29.595C186.327 27.8617 185.86 26.545 184.927 25.645C184.027 24.7117 182.927 24.245 181.627 24.245C180.66 24.245 179.877 24.445 179.277 24.845C178.677 25.245 178.194 25.7117 177.827 26.245C177.46 26.7783 177.21 27.295 177.077 27.795C176.977 28.2617 176.91 28.845 176.877 29.545V45.845Z" fill="white"/>
<path d="M201.631 63C196.918 63 193.098 60.096 193.098 56.5138C193.098 52.9322 196.918 50.0285 201.631 50.0285C206.343 50.0285 210.163 52.9322 210.163 56.5138C210.163 60.096 206.343 63 201.631 63ZM212.905 9.89245C212.183 14.2645 206.886 35.5491 205.134 42.5433C204.811 43.8366 203.323 44.7754 201.591 44.7754H201.525C199.731 44.7754 198.198 43.8074 197.864 42.4684C196.09 35.3686 190.801 14.0655 190.09 9.76298C189.235 4.58167 194.555 0 201.423 0C208.384 0.000315 213.775 4.64323 212.908 9.89245H212.905Z" fill="url(#paint0_linear)"/>
<defs>
<linearGradient id="paint0_linear" x1="184.641" y1="2.17075" x2="237.614" y2="46.3947" gradientUnits="userSpaceOnUse">
<stop stop-color="#FF7A00"/>
<stop offset="0.401042" stop-color="#FF00FF"/>
<stop offset="1" stop-color="#9800F9"/>
</linearGradient>
</defs>
</svg>
