<svg width="557" height="433" viewBox="0 0 557 433" fill="none" xmlns="http://www.w3.org/2000/svg">
<g clip-path="url(#clip0)">
<path d="M393.629 432.241H380.949C379.469 432.24 378.049 431.715 377.003 430.782C375.956 429.849 375.367 428.584 375.365 427.265V333.082C375.367 331.763 375.956 330.498 377.003 329.565C378.049 328.632 379.469 328.107 380.949 328.106H393.629C395.11 328.107 396.529 328.632 397.576 329.565C398.623 330.498 399.212 331.763 399.213 333.082V427.265C399.212 428.584 398.623 429.849 397.576 430.782C396.529 431.715 395.11 432.24 393.629 432.241Z" fill="url(#paint0_linear)"/>
<path d="M368.55 432.241H355.871C354.39 432.24 352.971 431.715 351.924 430.782C350.877 429.849 350.288 428.584 350.287 427.265V333.082C350.288 331.763 350.877 330.498 351.924 329.565C352.971 328.632 354.39 328.107 355.871 328.106H368.55C370.031 328.107 371.45 328.632 372.497 329.565C373.544 330.498 374.133 331.763 374.134 333.082V427.265C374.133 428.584 373.544 429.849 372.497 430.782C371.45 431.715 370.031 432.24 368.55 432.241Z" fill="url(#paint1_linear)"/>
<path d="M335.111 340.384C335.111 340.384 330.32 378.775 378.683 377.472C427.045 376.168 408.229 338.444 408.229 338.444C408.229 338.444 398.122 331.366 372.575 338.212C347.027 345.058 335.111 340.384 335.111 340.384Z" fill="#CCCCCC"/>
<path d="M355.894 274.665C353.559 274.666 351.276 274.054 349.331 272.903L266.491 224.041C265.257 223.311 264.399 222.176 264.104 220.883C263.808 219.59 264.101 218.245 264.916 217.144L271.914 207.721C272.319 207.176 272.84 206.708 273.448 206.342C274.056 205.977 274.739 205.721 275.458 205.591C276.176 205.461 276.917 205.458 277.636 205.583C278.356 205.707 279.041 205.957 279.653 206.318L362.493 255.18C364.631 256.441 366.257 258.282 367.128 260.432C367.999 262.581 368.069 264.923 367.328 267.111C366.587 269.298 365.075 271.215 363.015 272.576C360.955 273.937 358.458 274.669 355.894 274.665Z" fill="url(#paint2_linear)"/>
<path d="M370.935 229.816C395.132 229.816 414.748 212.334 414.748 190.769C414.748 169.204 395.132 151.722 370.935 151.722C346.737 151.722 327.121 169.204 327.121 190.769C327.121 212.334 346.737 229.816 370.935 229.816Z" fill="url(#paint3_linear)"/>
<path d="M376.057 207.16C373.217 207.09 369.682 207.002 366.959 205.229C366.148 204.68 365.482 203.979 365.007 203.176C364.532 202.372 364.26 201.486 364.21 200.58C364.161 199.935 364.28 199.289 364.557 198.693C364.834 198.096 365.262 197.564 365.808 197.14C367.231 196.069 369.307 195.817 371.546 196.403L369.227 181.301L370.929 181.093L373.655 198.848L372.233 198.267C370.585 197.593 368.323 197.25 366.917 198.309C366.572 198.586 366.303 198.93 366.132 199.314C365.96 199.699 365.89 200.113 365.927 200.526C365.969 201.201 366.173 201.86 366.526 202.458C366.879 203.056 367.373 203.579 367.973 203.993C370.092 205.372 372.909 205.55 376.105 205.63L376.057 207.16Z" fill="#2F2E41"/>
<path d="M360.808 182.604H351.555V184.135H360.808V182.604Z" fill="#2F2E41"/>
<path d="M390.017 182.604H380.764V184.135H390.017V182.604Z" fill="#2F2E41"/>
<path d="M415.192 348.473C415.192 348.473 418.975 233.847 366.014 241.714C313.054 249.58 335.121 360.272 335.121 360.272C335.121 360.272 346.469 380.5 374.21 358.025C401.952 335.549 415.192 348.473 415.192 348.473Z" fill="#2F2E41"/>
<path d="M276.682 333.357C275.604 333.358 274.549 333.081 273.643 332.559C272.738 332.038 272.021 331.294 271.579 330.418L266.389 320.107C266.089 319.511 265.923 318.868 265.902 318.215C265.881 317.561 266.004 316.911 266.265 316.3C266.526 315.689 266.919 315.13 267.423 314.655C267.926 314.18 268.529 313.797 269.198 313.53L359.836 277.293C361.265 276.722 362.806 276.407 364.371 276.367C365.936 276.326 367.495 276.561 368.958 277.057C370.421 277.554 371.761 278.302 372.9 279.26C374.039 280.218 374.955 281.366 375.595 282.639C376.236 283.913 376.59 285.286 376.635 286.681C376.68 288.076 376.417 289.465 375.86 290.769C375.303 292.073 374.463 293.267 373.388 294.282C372.314 295.297 371.025 296.113 369.597 296.684L278.959 332.921C278.243 333.209 277.467 333.357 276.682 333.357Z" fill="url(#paint4_linear)"/>
<path d="M395.647 157.788C387.122 152.63 376.363 156.134 368.079 159.816C360.034 163.391 350.969 167.94 341.866 164.496C338.311 163.151 335.422 160.52 334.92 157.001C334.322 152.808 337.167 148.882 340.331 146.031C343.77 143.099 347.776 140.745 352.156 139.086C356.45 137.364 360.974 136.138 365.617 135.438C374.813 134.022 384.256 134.585 393.16 137.079C402.063 139.574 410.169 143.928 416.802 149.779C423.218 155.612 428.176 162.589 431.349 170.253C434.521 177.916 435.836 186.092 435.208 194.241C434.484 202.927 431.371 211.784 425.126 218.603C419.267 225 410.493 229.498 401.129 229.874C398.835 229.97 396.536 229.803 394.289 229.379C392.671 229.071 391.98 231.285 393.604 231.593C403.356 233.447 413.46 230.693 421.195 225.271C429.338 219.562 434.334 210.921 436.524 202.017C440.716 184.978 435.465 166.641 423.431 153C417.488 146.206 409.79 140.792 400.993 137.221C391.908 133.606 381.983 131.983 372.049 132.488C362.143 132.931 352.532 135.645 344.147 140.367C336.647 144.687 328.193 153.844 334.31 161.947C336.598 164.976 340.395 166.822 344.338 167.58C348.862 168.365 353.542 168.002 357.846 166.532C367.645 163.448 376.708 156.557 387.676 157.601C390.066 157.823 392.358 158.568 394.346 159.772C395.722 160.604 397.013 158.615 395.647 157.788L395.647 157.788Z" fill="#2F2E41"/>
<path d="M246.049 298.036C245.551 298.035 245.059 297.935 244.609 297.744C244.16 297.552 243.764 297.273 243.452 296.927L229.203 281.406H20.9303C18.8804 281.404 16.9151 280.677 15.4656 279.386C14.0162 278.094 13.2008 276.342 13.1985 274.516V164.266C13.2008 162.439 14.0162 160.687 15.4656 159.395C16.9151 158.104 18.8804 157.377 20.9303 157.375H241.715C243.765 157.377 245.731 158.104 247.18 159.395C248.63 160.687 249.445 162.439 249.447 164.266V295.019C249.452 295.642 249.239 296.25 248.837 296.759C248.434 297.267 247.863 297.651 247.204 297.856C246.833 297.975 246.443 298.036 246.049 298.036ZM20.9303 158.906C19.3359 158.908 17.8074 159.473 16.68 160.478C15.5526 161.482 14.9184 162.845 14.9167 164.266V274.516C14.9184 275.936 15.5526 277.299 16.68 278.303C17.8074 279.308 19.3359 279.873 20.9303 279.875H230.017L244.781 295.957C244.998 296.194 245.292 296.364 245.622 296.446C245.953 296.528 246.303 296.517 246.626 296.414C246.949 296.311 247.228 296.122 247.426 295.872C247.623 295.623 247.729 295.325 247.729 295.019V164.266C247.727 162.845 247.093 161.482 245.966 160.478C244.838 159.473 243.31 158.908 241.715 158.906H20.9303Z" fill="#3F3D56"/>
<path d="M216.802 194.125H45.8437C44.7045 194.125 43.6119 193.722 42.8064 193.004C42.0008 192.286 41.5483 191.312 41.5483 190.297C41.5483 189.282 42.0008 188.308 42.8064 187.59C43.6119 186.872 44.7045 186.469 45.8437 186.469H216.802C217.941 186.469 219.034 186.872 219.839 187.59C220.645 188.308 221.097 189.282 221.097 190.297C221.097 191.312 220.645 192.286 219.839 193.004C219.034 193.722 217.941 194.125 216.802 194.125Z" fill="#CCCCCC"/>
<path d="M216.802 219.391H45.8437C44.7045 219.391 43.6119 218.987 42.8064 218.269C42.0008 217.551 41.5483 216.578 41.5483 215.563C41.5483 214.547 42.0008 213.574 42.8064 212.856C43.6119 212.138 44.7045 211.734 45.8437 211.734H216.802C217.941 211.734 219.034 212.138 219.839 212.856C220.645 213.574 221.097 214.547 221.097 215.563C221.097 216.578 220.645 217.551 219.839 218.269C219.034 218.987 217.941 219.391 216.802 219.391Z" fill="#CCCCCC"/>
<path d="M216.802 244.656H45.8437C44.7045 244.656 43.6119 244.253 42.8064 243.535C42.0008 242.817 41.5483 241.843 41.5483 240.828C41.5483 239.813 42.0008 238.839 42.8064 238.121C43.6119 237.403 44.7045 237 45.8437 237H216.802C217.941 237 219.034 237.403 219.839 238.121C220.645 238.839 221.097 239.813 221.097 240.828C221.097 241.843 220.645 242.817 219.839 243.535C219.034 244.253 217.941 244.656 216.802 244.656Z" fill="#CCCCCC"/>
<path d="M28.3048 140.168L24.7769 139.139C12.1848 135.355 3.9122 132.939 0.965573 127.02C0.393407 125.923 0.0693187 124.736 0.0117902 123.527C-0.0457384 122.319 0.164414 121.112 0.630281 119.975C1.09615 118.839 1.80859 117.795 2.72693 116.905C3.64526 116.014 4.75153 115.293 5.98253 114.783C6.07319 114.745 6.16443 114.709 6.25626 114.674C7.75129 114.091 9.3707 113.805 11.0021 113.836C12.6334 113.868 14.2376 114.215 15.7033 114.854C16.1552 113.457 16.9429 112.164 18.0118 111.065C19.0807 109.966 20.4051 109.088 21.8931 108.491C24.3862 107.475 27.2302 107.383 29.7995 108.235C32.3688 109.087 34.4529 110.814 35.5934 113.036C35.635 113.117 35.6752 113.199 35.7142 113.281C38.6608 119.2 35.1192 126.288 29.8161 137.147L28.3048 140.168Z" fill="url(#paint5_linear)"/>
<path d="M206.98 21.1973L204.68 20.5262C196.471 18.0596 191.078 16.4843 189.157 12.6253C188.784 11.9101 188.573 11.1364 188.535 10.3484C188.498 9.56044 188.635 8.77358 188.938 8.03278C189.242 7.29198 189.707 6.61174 190.305 6.03091C190.904 5.45008 191.625 4.98003 192.428 4.6476C192.487 4.6231 192.546 4.59939 192.606 4.57646C193.581 4.19663 194.637 4.01039 195.7 4.03069C196.764 4.05099 197.809 4.27734 198.765 4.69401C199.06 3.78305 199.573 2.94015 200.27 2.22384C200.967 1.50753 201.83 0.934966 202.8 0.545914C203.605 0.217821 204.474 0.0341999 205.359 0.00555064C206.243 -0.0230986 207.125 0.10378 207.955 0.378935C208.784 0.654091 209.545 1.07214 210.193 1.60921C210.841 2.14628 211.364 2.79186 211.732 3.50908C211.759 3.56188 211.785 3.61504 211.811 3.66853C213.732 7.52757 211.423 12.1481 207.966 19.2273L206.98 21.1973Z" fill="url(#paint6_linear)"/>
<path d="M277.797 81.578H211.647C209.598 81.5759 207.632 80.8493 206.183 79.5575C204.733 78.2657 203.918 76.5143 203.916 74.6874V37.1718C203.918 35.3449 204.733 33.5934 206.183 32.3017C207.632 31.0099 209.598 30.2832 211.647 30.2811H277.797C279.847 30.2832 281.812 31.0099 283.262 32.3017C284.711 33.5934 285.526 35.3449 285.529 37.1718V74.6874C285.526 76.5143 284.711 78.2657 283.262 79.5575C281.812 80.8493 279.847 81.5759 277.797 81.578ZM211.647 31.8124C210.053 31.814 208.524 32.3791 207.397 33.3839C206.27 34.3886 205.636 35.7508 205.634 37.1718V74.6874C205.636 76.1083 206.27 77.4706 207.397 78.4753C208.524 79.48 210.053 80.0452 211.647 80.0468H277.797C279.391 80.0452 280.92 79.48 282.047 78.4753C283.175 77.4706 283.809 76.1083 283.811 74.6874V37.1718C283.809 35.7508 283.175 34.3886 282.047 33.3839C280.92 32.3791 279.391 31.814 277.797 31.8124H211.647Z" fill="#3F3D56"/>
<path d="M244.368 55.5906C242.6 55.5935 240.874 55.1124 239.423 54.2122L206.231 33.5302L207.215 32.2756L240.408 52.9576C241.555 53.6667 242.916 54.0511 244.312 54.0609C245.709 54.0706 247.076 53.7052 248.236 53.0122L282.406 32.424L283.368 33.6929L249.198 54.281C247.771 55.1372 246.089 55.5933 244.368 55.5906Z" fill="#3F3D56"/>
<path d="M244.293 64.7342C249.986 64.7342 254.602 60.6209 254.602 55.5468C254.602 50.4726 249.986 46.3593 244.293 46.3593C238.599 46.3593 233.984 50.4726 233.984 55.5468C233.984 60.6209 238.599 64.7342 244.293 64.7342Z" fill="#3F3D56"/>
<path d="M494.391 86.2778L492.557 85.7428C486.014 83.7767 481.715 82.5211 480.184 79.4452C479.584 78.2939 479.521 76.9771 480.01 75.7846C480.499 74.592 481.499 73.6215 482.791 73.0863C482.838 73.0668 482.886 73.0479 482.933 73.0296C483.71 72.7269 484.552 72.5784 485.399 72.5946C486.247 72.6108 487.081 72.7912 487.842 73.1233C488.077 72.3972 488.486 71.7253 489.042 71.1544C489.597 70.5834 490.286 70.1271 491.059 69.817C491.7 69.5554 492.393 69.4091 493.098 69.3862C493.803 69.3634 494.506 69.4645 495.167 69.6838C495.828 69.9032 496.435 70.2364 496.951 70.6645C497.468 71.0926 497.885 71.6071 498.178 72.1788C498.2 72.2209 498.221 72.2633 498.241 72.3059C499.772 75.3819 497.932 79.0648 495.176 84.7075L494.391 86.2778Z" fill="url(#paint7_linear)"/>
<path d="M550.837 134.406H498.111C496.477 134.404 494.91 133.825 493.755 132.796C492.6 131.766 491.95 130.37 491.948 128.914V99.0108C491.95 97.5546 492.6 96.1586 493.755 95.129C494.91 94.0993 496.477 93.5201 498.111 93.5184H550.837C552.471 93.5201 554.038 94.0993 555.193 95.129C556.348 96.1586 556.998 97.5546 557 99.0108V128.914C556.998 130.37 556.348 131.766 555.193 132.796C554.038 133.825 552.471 134.404 550.837 134.406ZM498.111 94.739C496.84 94.7402 495.621 95.1907 494.723 95.9916C493.824 96.7924 493.319 97.8782 493.317 99.0108V128.914C493.319 130.046 493.824 131.132 494.723 131.933C495.621 132.734 496.84 133.184 498.111 133.186H550.837C552.108 133.184 553.326 132.734 554.225 131.933C555.124 131.132 555.629 130.046 555.631 128.914V99.0108C555.629 97.8782 555.124 96.7924 554.225 95.9916C553.326 95.1907 552.108 94.7402 550.837 94.739H498.111Z" fill="#3F3D56"/>
<path d="M524.191 113.692C522.782 113.694 521.407 113.311 520.25 112.593L493.793 96.1082L494.578 95.1082L521.035 111.593C521.95 112.159 523.034 112.465 524.147 112.473C525.26 112.48 526.35 112.189 527.275 111.637L554.511 95.2264L555.278 96.2378L528.042 112.648C526.904 113.331 525.563 113.694 524.191 113.692Z" fill="#3F3D56"/>
<path d="M524.132 120.98C528.67 120.98 532.349 117.702 532.349 113.657C532.349 109.613 528.67 106.334 524.132 106.334C519.593 106.334 515.914 109.613 515.914 113.657C515.914 117.702 519.593 120.98 524.132 120.98Z" fill="#3F3D56"/>
<path d="M542.396 433H215.084C214.856 433 214.637 432.919 214.476 432.776C214.315 432.632 214.225 432.437 214.225 432.234C214.225 432.031 214.315 431.837 214.476 431.693C214.637 431.549 214.856 431.469 215.084 431.469H542.396C542.623 431.469 542.842 431.549 543.003 431.693C543.164 431.837 543.255 432.031 543.255 432.234C543.255 432.437 543.164 432.632 543.003 432.776C542.842 432.919 542.623 433 542.396 433Z" fill="#3F3D56"/>
</g>
<defs>
<linearGradient id="paint0_linear" x1="387.289" y1="328.106" x2="387.289" y2="432.241" gradientUnits="userSpaceOnUse">
<stop stop-color="#FF7A00"/>
<stop offset="0.5" stop-color="#FF00FF" stop-opacity="0.7"/>
<stop offset="1" stop-color="#9800F9" stop-opacity="0.8"/>
</linearGradient>
<linearGradient id="paint1_linear" x1="362.211" y1="328.106" x2="362.211" y2="432.241" gradientUnits="userSpaceOnUse">
<stop stop-color="#FF7A00"/>
<stop offset="0.5" stop-color="#FF00FF" stop-opacity="0.7"/>
<stop offset="1" stop-color="#9800F9" stop-opacity="0.8"/>
</linearGradient>
<linearGradient id="paint2_linear" x1="315.914" y1="205.491" x2="315.914" y2="274.665" gradientUnits="userSpaceOnUse">
<stop stop-color="#FF7A00"/>
<stop offset="0.5" stop-color="#FF00FF" stop-opacity="0.7"/>
<stop offset="1" stop-color="#9800F9" stop-opacity="0.8"/>
</linearGradient>
<linearGradient id="paint3_linear" x1="370.935" y1="151.722" x2="417.613" y2="249.869" gradientUnits="userSpaceOnUse">
<stop stop-color="#FF7A00" stop-opacity="0.7"/>
<stop offset="0.484375" stop-color="#FF00FF" stop-opacity="0.7"/>
<stop offset="1" stop-color="#9800F9" stop-opacity="0.7"/>
</linearGradient>
<linearGradient id="paint4_linear" x1="321.27" y1="276.362" x2="321.27" y2="333.357" gradientUnits="userSpaceOnUse">
<stop stop-color="#FF7A00"/>
<stop offset="0.5" stop-color="#FF00FF" stop-opacity="0.7"/>
<stop offset="1" stop-color="#9800F9" stop-opacity="0.8"/>
</linearGradient>
<linearGradient id="paint5_linear" x1="-3.59357" y1="120.229" x2="49.8759" y2="141.365" gradientUnits="userSpaceOnUse">
<stop stop-color="#FF7A00"/>
<stop offset="0.473958" stop-color="#FF00FF"/>
<stop offset="1" stop-color="#9800F9"/>
</linearGradient>
<linearGradient id="paint6_linear" x1="188.661" y1="10.4548" x2="212.667" y2="21.4566" gradientUnits="userSpaceOnUse">
<stop stop-color="#FF7A00"/>
<stop offset="0.473958" stop-color="#FF00FF"/>
<stop offset="1" stop-color="#9800F9"/>
</linearGradient>
<linearGradient id="paint7_linear" x1="479.739" y1="73.1831" x2="498.333" y2="83.6832" gradientUnits="userSpaceOnUse">
<stop stop-color="#FF7A00"/>
<stop offset="0.473958" stop-color="#FF00FF"/>
<stop offset="1" stop-color="#9800F9"/>
</linearGradient>
<clipPath id="clip0">
<rect width="557" height="433" fill="white"/>
</clipPath>
</defs>
</svg>
