<svg width="557" height="433" viewBox="0 0 557 433" fill="none" xmlns="http://www.w3.org/2000/svg">
<g clip-path="url(#clip0)">
<path d="M393.629 432.241H380.949C379.469 432.24 378.049 431.715 377.003 430.782C375.956 429.849 375.367 428.584 375.365 427.265V333.082C375.367 331.763 375.956 330.498 377.003 329.565C378.049 328.632 379.469 328.107 380.949 328.106H393.629C395.11 328.107 396.529 328.632 397.576 329.565C398.623 330.498 399.212 331.763 399.213 333.082V427.265C399.212 428.584 398.623 429.849 397.576 430.782C396.529 431.715 395.11 432.24 393.629 432.241Z" fill="url(#paint0_linear)"/>
<path d="M368.551 432.241H355.871C354.391 432.24 352.971 431.715 351.924 430.782C350.878 429.849 350.289 428.584 350.287 427.265V333.082C350.289 331.763 350.878 330.498 351.924 329.565C352.971 328.632 354.391 328.107 355.871 328.106H368.551C370.031 328.107 371.451 328.632 372.498 329.565C373.544 330.498 374.133 331.763 374.135 333.082V427.265C374.133 428.584 373.544 429.849 372.497 430.782C371.451 431.715 370.031 432.24 368.551 432.241Z" fill="url(#paint1_linear)"/>
<path d="M335.11 340.384C335.11 340.384 330.32 378.775 378.683 377.472C427.045 376.168 408.229 338.444 408.229 338.444C408.229 338.444 398.122 331.366 372.575 338.212C347.027 345.058 335.11 340.384 335.11 340.384Z" fill="#CCCCCC"/>
<path d="M355.893 274.665C353.559 274.666 351.276 274.054 349.331 272.903L266.491 224.041C265.257 223.311 264.399 222.176 264.104 220.883C263.808 219.59 264.101 218.245 264.916 217.144L271.914 207.721C272.319 207.176 272.84 206.708 273.448 206.342C274.056 205.977 274.739 205.721 275.458 205.591C276.176 205.461 276.916 205.458 277.636 205.583C278.356 205.707 279.041 205.957 279.653 206.318L362.493 255.18C364.631 256.441 366.257 258.282 367.128 260.432C367.999 262.581 368.069 264.923 367.328 267.111C366.587 269.298 365.075 271.215 363.015 272.576C360.955 273.937 358.458 274.669 355.893 274.665Z" fill="url(#paint2_linear)"/>
<path d="M370.934 229.816C395.132 229.816 414.748 212.334 414.748 190.769C414.748 169.204 395.132 151.722 370.934 151.722C346.737 151.722 327.121 169.204 327.121 190.769C327.121 212.334 346.737 229.816 370.934 229.816Z" fill="url(#paint3_linear)"/>
<path d="M376.057 207.16C373.217 207.09 369.682 207.002 366.959 205.229C366.148 204.68 365.482 203.979 365.007 203.176C364.532 202.372 364.26 201.486 364.21 200.58C364.161 199.935 364.279 199.289 364.557 198.693C364.834 198.096 365.262 197.564 365.808 197.14C367.231 196.068 369.307 195.817 371.545 196.403L369.227 181.301L370.929 181.093L373.655 198.848L372.233 198.267C370.585 197.593 368.323 197.25 366.917 198.309C366.572 198.586 366.303 198.93 366.131 199.314C365.96 199.699 365.89 200.113 365.927 200.526C365.969 201.201 366.173 201.86 366.526 202.458C366.879 203.056 367.372 203.579 367.973 203.992C370.092 205.372 372.909 205.55 376.105 205.629L376.057 207.16Z" fill="#2F2E41"/>
<path d="M360.808 182.604H351.555V184.135H360.808V182.604Z" fill="#2F2E41"/>
<path d="M390.017 182.604H380.764V184.135H390.017V182.604Z" fill="#2F2E41"/>
<path d="M415.192 348.473C415.192 348.473 418.975 233.847 366.014 241.714C313.054 249.58 335.121 360.272 335.121 360.272C335.121 360.272 346.469 380.5 374.21 358.025C401.952 335.549 415.192 348.473 415.192 348.473Z" fill="#2F2E41"/>
<path d="M276.682 333.357C275.604 333.358 274.549 333.081 273.643 332.559C272.738 332.038 272.021 331.294 271.578 330.418L266.389 320.107C266.088 319.511 265.923 318.868 265.902 318.215C265.88 317.561 266.004 316.911 266.265 316.3C266.526 315.689 266.919 315.13 267.422 314.655C267.926 314.18 268.529 313.797 269.198 313.53L359.836 277.293C361.264 276.722 362.805 276.407 364.37 276.367C365.936 276.326 367.494 276.561 368.958 277.057C370.421 277.554 371.761 278.302 372.899 279.26C374.038 280.218 374.954 281.366 375.595 282.639C376.236 283.913 376.589 285.286 376.635 286.681C376.68 288.076 376.417 289.465 375.86 290.769C375.303 292.073 374.463 293.267 373.388 294.282C372.314 295.297 371.025 296.113 369.596 296.684L278.959 332.921C278.243 333.209 277.467 333.357 276.682 333.357Z" fill="url(#paint4_linear)"/>
<path d="M395.647 157.788C387.122 152.63 376.362 156.134 368.079 159.815C360.034 163.391 350.968 167.94 341.866 164.496C338.311 163.151 335.422 160.52 334.919 157.001C334.321 152.808 337.166 148.882 340.33 146.031C343.769 143.099 347.776 140.745 352.156 139.086C356.45 137.364 360.973 136.138 365.616 135.438C374.813 134.022 384.256 134.585 393.159 137.079C402.063 139.574 410.168 143.928 416.801 149.779C423.218 155.612 428.176 162.589 431.348 170.253C434.521 177.916 435.836 186.091 435.208 194.241C434.484 202.927 431.371 211.784 425.126 218.603C419.267 225 410.493 229.498 401.129 229.874C398.834 229.969 396.535 229.803 394.288 229.379C392.671 229.071 391.979 231.285 393.603 231.593C403.356 233.447 413.459 230.693 421.195 225.271C429.337 219.562 434.334 210.921 436.524 202.017C440.716 184.978 435.465 166.641 423.43 153C417.488 146.206 409.79 140.792 400.993 137.221C391.908 133.606 381.983 131.983 372.049 132.488C362.142 132.931 352.532 135.645 344.147 140.367C336.646 144.687 328.193 153.844 334.31 161.947C336.598 164.976 340.395 166.822 344.337 167.58C348.861 168.365 353.542 168.001 357.846 166.532C367.645 163.448 376.707 156.557 387.676 157.601C390.066 157.823 392.358 158.568 394.346 159.772C395.722 160.604 397.013 158.615 395.647 157.788L395.647 157.788Z" fill="white"/>
<path d="M246.049 298.036C245.55 298.035 245.059 297.935 244.609 297.744C244.16 297.552 243.764 297.273 243.451 296.927L229.203 281.406H20.93C18.8801 281.404 16.9149 280.677 15.4654 279.386C14.0159 278.094 13.2006 276.342 13.1982 274.516V164.266C13.2006 162.439 14.0159 160.687 15.4654 159.395C16.9149 158.104 18.8801 157.377 20.93 157.375H241.715C243.765 157.377 245.73 158.104 247.18 159.395C248.629 160.687 249.445 162.439 249.447 164.266V295.019C249.452 295.642 249.239 296.25 248.836 296.759C248.434 297.267 247.863 297.651 247.204 297.856C246.833 297.975 246.442 298.036 246.049 298.036ZM20.93 158.906C19.3357 158.908 17.8071 159.473 16.6797 160.478C15.5524 161.482 14.9182 162.845 14.9164 164.266V274.516C14.9182 275.936 15.5524 277.299 16.6797 278.303C17.8071 279.308 19.3357 279.873 20.93 279.875H230.017L244.781 295.957C244.998 296.194 245.292 296.364 245.622 296.446C245.952 296.528 246.303 296.517 246.626 296.414C246.949 296.311 247.228 296.122 247.425 295.872C247.623 295.623 247.729 295.325 247.729 295.019V164.266C247.727 162.845 247.093 161.482 245.965 160.478C244.838 159.473 243.31 158.908 241.715 158.906H20.93Z" fill="white"/>
<path d="M216.801 194.125H45.8433C44.7041 194.125 43.6115 193.722 42.8059 193.004C42.0004 192.286 41.5479 191.312 41.5479 190.297C41.5479 189.282 42.0004 188.308 42.8059 187.59C43.6115 186.872 44.7041 186.469 45.8433 186.469H216.801C217.941 186.469 219.033 186.872 219.839 187.59C220.644 188.308 221.097 189.282 221.097 190.297C221.097 191.312 220.644 192.286 219.839 193.004C219.033 193.722 217.941 194.125 216.801 194.125Z" fill="#CCCCCC"/>
<path d="M216.801 219.391H45.8433C44.7041 219.391 43.6115 218.987 42.8059 218.269C42.0004 217.551 41.5479 216.578 41.5479 215.562C41.5479 214.547 42.0004 213.573 42.8059 212.856C43.6115 212.138 44.7041 211.734 45.8433 211.734H216.801C217.941 211.734 219.033 212.138 219.839 212.856C220.644 213.573 221.097 214.547 221.097 215.562C221.097 216.578 220.644 217.551 219.839 218.269C219.033 218.987 217.941 219.391 216.801 219.391Z" fill="#CCCCCC"/>
<path d="M216.801 244.656H45.8433C44.7041 244.656 43.6115 244.253 42.8059 243.535C42.0004 242.817 41.5479 241.843 41.5479 240.828C41.5479 239.813 42.0004 238.839 42.8059 238.121C43.6115 237.403 44.7041 237 45.8433 237H216.801C217.941 237 219.033 237.403 219.839 238.121C220.644 238.839 221.097 239.813 221.097 240.828C221.097 241.843 220.644 242.817 219.839 243.535C219.033 244.253 217.941 244.656 216.801 244.656Z" fill="#CCCCCC"/>
<path d="M28.3053 140.168L24.7773 139.139C12.1852 135.355 3.91262 132.939 0.966 127.02C0.393834 125.923 0.069746 124.736 0.0122174 123.527C-0.0453112 122.318 0.164841 121.111 0.630708 119.975C1.09658 118.839 1.80901 117.795 2.72735 116.905C3.64569 116.014 4.75196 115.293 5.98296 114.783C6.07362 114.745 6.16486 114.709 6.25669 114.674C7.75172 114.091 9.37113 113.805 11.0025 113.836C12.6338 113.868 14.238 114.215 15.7037 114.854C16.1556 113.456 16.9433 112.164 18.0122 111.065C19.0811 109.966 20.4056 109.088 21.8936 108.491C24.3866 107.475 27.2306 107.383 29.7999 108.235C32.3692 109.087 34.4534 110.814 35.5938 113.036C35.6354 113.117 35.6757 113.199 35.7146 113.281C38.6612 119.2 35.1196 126.288 29.8165 137.146L28.3053 140.168Z" fill="url(#paint5_linear)"/>
<path d="M206.98 21.1973L204.68 20.5261C196.471 18.0595 191.078 16.4843 189.157 12.6253C188.784 11.91 188.573 11.1364 188.535 10.3484C188.498 9.56038 188.635 8.77352 188.939 8.03272C189.242 7.29192 189.707 6.61168 190.305 6.03085C190.904 5.45002 191.625 4.97997 192.428 4.64754C192.487 4.62304 192.546 4.59932 192.606 4.5764C193.581 4.19656 194.637 4.01033 195.7 4.03063C196.764 4.05093 197.81 4.27728 198.765 4.69395C199.06 3.78299 199.573 2.94009 200.27 2.22378C200.967 1.50746 201.83 0.934905 202.8 0.545853C203.605 0.21776 204.475 0.0341389 205.359 0.0054896C206.243 -0.0231597 207.126 0.103719 207.955 0.378874C208.784 0.65403 209.545 1.07208 210.193 1.60915C210.841 2.14622 211.364 2.7918 211.732 3.50902C211.759 3.56182 211.785 3.61497 211.811 3.66847C213.732 7.52751 211.423 12.148 207.966 19.2272L206.98 21.1973Z" fill="url(#paint6_linear)"/>
<path d="M277.797 81.5781H211.648C209.598 81.576 207.633 80.8493 206.183 79.5575C204.734 78.2657 203.918 76.5143 203.916 74.6874V37.1718C203.918 35.3449 204.734 33.5935 206.183 32.3017C207.633 31.0099 209.598 30.2832 211.648 30.2812H277.797C279.847 30.2832 281.813 31.0099 283.262 32.3017C284.712 33.5935 285.527 35.3449 285.529 37.1718V74.6874C285.527 76.5143 284.712 78.2657 283.262 79.5575C281.813 80.8493 279.847 81.576 277.797 81.5781ZM211.648 31.8124C210.053 31.814 208.525 32.3792 207.398 33.3839C206.27 34.3886 205.636 35.7509 205.634 37.1718V74.6874C205.636 76.1083 206.27 77.4706 207.398 78.4753C208.525 79.4801 210.053 80.0452 211.648 80.0468H277.797C279.392 80.0452 280.92 79.4801 282.048 78.4753C283.175 77.4706 283.809 76.1083 283.811 74.6874V37.1718C283.809 35.7509 283.175 34.3886 282.048 33.3839C280.92 32.3792 279.392 31.814 277.797 31.8124H211.648Z" fill="white"/>
<path d="M244.368 55.5905C242.6 55.5935 240.874 55.1123 239.423 54.2122L206.23 33.5302L207.215 32.2756L240.408 52.9575C241.555 53.6666 242.916 54.0511 244.312 54.0608C245.709 54.0705 247.076 53.7051 248.236 53.0121L282.406 32.424L283.368 33.6928L249.198 54.2809C247.771 55.1372 246.088 55.5932 244.368 55.5905Z" fill="white"/>
<path d="M244.292 64.7343C249.986 64.7343 254.601 60.6209 254.601 55.5468C254.601 50.4727 249.986 46.3593 244.292 46.3593C238.599 46.3593 233.983 50.4727 233.983 55.5468C233.983 60.6209 238.599 64.7343 244.292 64.7343Z" fill="white"/>
<path d="M494.391 86.2778L492.557 85.7429C486.014 83.7768 481.715 82.5212 480.184 79.4453C479.584 78.2939 479.521 76.9771 480.01 75.7846C480.499 74.5921 481.499 73.6215 482.791 73.0864C482.838 73.0669 482.886 73.048 482.933 73.0297C483.71 72.7269 484.552 72.5785 485.399 72.5946C486.247 72.6108 487.081 72.7913 487.842 73.1234C488.077 72.3973 488.487 71.7254 489.042 71.1544C489.597 70.5835 490.286 70.1271 491.059 69.817C491.7 69.5555 492.393 69.4091 493.098 69.3863C493.803 69.3634 494.506 69.4646 495.167 69.6839C495.828 69.9032 496.435 70.2364 496.951 70.6645C497.468 71.0926 497.885 71.6072 498.178 72.1789C498.2 72.221 498.221 72.2633 498.241 72.306C499.772 75.3819 497.932 79.0648 495.176 84.7076L494.391 86.2778Z" fill="url(#paint7_linear)"/>
<path d="M550.838 134.406H498.111C496.477 134.405 494.911 133.825 493.755 132.796C492.6 131.766 491.95 130.37 491.948 128.914V99.0108C491.95 97.5547 492.6 96.1587 493.755 95.129C494.911 94.0993 496.477 93.5201 498.111 93.5185H550.838C552.472 93.5201 554.038 94.0993 555.193 95.129C556.349 96.1587 556.999 97.5547 557 99.0108V128.914C556.999 130.37 556.349 131.766 555.193 132.796C554.038 133.825 552.472 134.405 550.838 134.406ZM498.111 94.739C496.84 94.7403 495.622 95.1907 494.723 95.9916C493.825 96.7924 493.319 97.8783 493.318 99.0108V128.914C493.319 130.046 493.825 131.132 494.723 131.933C495.622 132.734 496.84 133.184 498.111 133.186H550.838C552.108 133.184 553.327 132.734 554.225 131.933C555.124 131.132 555.63 130.046 555.631 128.914V99.0108C555.63 97.8783 555.124 96.7924 554.225 95.9916C553.327 95.1907 552.108 94.7403 550.838 94.739H498.111Z" fill="white"/>
<path d="M524.191 113.692C522.782 113.694 521.406 113.311 520.25 112.593L493.793 96.1082L494.578 95.1082L521.035 111.593C521.95 112.159 523.034 112.465 524.147 112.473C525.26 112.481 526.35 112.189 527.275 111.637L554.511 95.2265L555.278 96.2378L528.042 112.648C526.904 113.331 525.563 113.694 524.191 113.692Z" fill="white"/>
<path d="M524.131 120.98C528.669 120.98 532.348 117.702 532.348 113.657C532.348 109.613 528.669 106.334 524.131 106.334C519.593 106.334 515.914 109.613 515.914 113.657C515.914 117.702 519.593 120.98 524.131 120.98Z" fill="white"/>
<path d="M542.396 433H215.084C214.856 433 214.637 432.919 214.476 432.776C214.315 432.632 214.225 432.437 214.225 432.234C214.225 432.031 214.315 431.837 214.476 431.693C214.637 431.549 214.856 431.469 215.084 431.469H542.396C542.623 431.469 542.842 431.549 543.003 431.693C543.164 431.837 543.255 432.031 543.255 432.234C543.255 432.437 543.164 432.632 543.003 432.776C542.842 432.919 542.623 433 542.396 433Z" fill="#3F3D56"/>
</g>
<defs>
<linearGradient id="paint0_linear" x1="387.289" y1="328.106" x2="387.289" y2="432.241" gradientUnits="userSpaceOnUse">
<stop stop-color="#FF7A00"/>
<stop offset="0.5" stop-color="#FF00FF" stop-opacity="0.7"/>
<stop offset="1" stop-color="#9800F9" stop-opacity="0.8"/>
</linearGradient>
<linearGradient id="paint1_linear" x1="362.211" y1="328.106" x2="362.211" y2="432.241" gradientUnits="userSpaceOnUse">
<stop stop-color="#FF7A00"/>
<stop offset="0.5" stop-color="#FF00FF" stop-opacity="0.7"/>
<stop offset="1" stop-color="#9800F9" stop-opacity="0.8"/>
</linearGradient>
<linearGradient id="paint2_linear" x1="315.914" y1="205.491" x2="315.914" y2="274.665" gradientUnits="userSpaceOnUse">
<stop stop-color="#FF7A00"/>
<stop offset="0.5" stop-color="#FF00FF" stop-opacity="0.7"/>
<stop offset="1" stop-color="#9800F9" stop-opacity="0.8"/>
</linearGradient>
<linearGradient id="paint3_linear" x1="370.934" y1="151.722" x2="417.613" y2="249.869" gradientUnits="userSpaceOnUse">
<stop stop-color="#FF7A00" stop-opacity="0.7"/>
<stop offset="0.484375" stop-color="#FF00FF" stop-opacity="0.7"/>
<stop offset="1" stop-color="#9800F9" stop-opacity="0.7"/>
</linearGradient>
<linearGradient id="paint4_linear" x1="321.27" y1="276.362" x2="321.27" y2="333.357" gradientUnits="userSpaceOnUse">
<stop stop-color="#FF7A00"/>
<stop offset="0.5" stop-color="#FF00FF" stop-opacity="0.7"/>
<stop offset="1" stop-color="#9800F9" stop-opacity="0.8"/>
</linearGradient>
<linearGradient id="paint5_linear" x1="-3.59314" y1="120.229" x2="49.8763" y2="141.365" gradientUnits="userSpaceOnUse">
<stop stop-color="#FF7A00"/>
<stop offset="0.473958" stop-color="#FF00FF"/>
<stop offset="1" stop-color="#9800F9"/>
</linearGradient>
<linearGradient id="paint6_linear" x1="188.661" y1="10.4548" x2="212.667" y2="21.4566" gradientUnits="userSpaceOnUse">
<stop stop-color="#FF7A00"/>
<stop offset="0.473958" stop-color="#FF00FF"/>
<stop offset="1" stop-color="#9800F9"/>
</linearGradient>
<linearGradient id="paint7_linear" x1="479.739" y1="73.1831" x2="498.333" y2="83.6833" gradientUnits="userSpaceOnUse">
<stop stop-color="#FF7A00"/>
<stop offset="0.473958" stop-color="#FF00FF"/>
<stop offset="1" stop-color="#9800F9"/>
</linearGradient>
<clipPath id="clip0">
<rect width="557" height="433" fill="white"/>
</clipPath>
</defs>
</svg>
